<svg data-v-423bf9ae="" xmlns="http://www.w3.org/2000/svg" viewBox="0 0 411.690876153758 60" class="font"><!----><!----><!----><g data-v-423bf9ae="" id="ffe9dcde-1fba-4243-a616-e0909eda851b" fill="white" transform="matrix(4.590665418742173,0,0,4.590665418742173,-4.774290980036511,0.04590736244790605)"><path d="M8.67 1.36L8.67 1.36L8.67 10.50L6.09 10.50L2.90 3.81L2.90 10.50L1.04 10.50L1.04 1.36L3.61 1.36L6.80 8.05L6.80 1.36L8.67 1.36ZM13.43 3.12L13.43 3.12L13.43 3.12Q13.89 3.12 14.42 3.27L14.42 3.27L14.42 3.27Q14.95 3.42 15.41 3.75L15.41 3.75L15.41 3.75Q15.88 4.07 16.17 4.59L16.17 4.59L16.17 4.59Q16.46 5.11 16.45 5.85L16.45 5.85L16.45 10.50L15.08 10.50L15.08 10.50Q15.08 10.50 15.04 10.33L15.04 10.33L15.04 10.33Q14.99 10.16 14.95 9.95L14.95 9.95L14.95 9.95Q14.90 9.74 14.85 9.58L14.85 9.58L14.85 9.58Q14.81 9.42 14.81 9.44L14.81 9.44L14.81 9.44Q14.62 9.79 14.29 10.05L14.29 10.05L14.29 10.05Q14.01 10.29 13.57 10.47L13.57 10.47L13.57 10.47Q13.13 10.65 12.49 10.65L12.49 10.65L12.49 10.65Q12.04 10.65 11.61 10.52L11.61 10.52L11.61 10.52Q11.17 10.39 10.83 10.13L10.83 10.13L10.83 10.13Q10.49 9.87 10.27 9.48L10.27 9.48L10.27 9.48Q10.05 9.09 10.04 8.57L10.04 8.57L10.04 8.57Q10.01 8.02 10.19 7.59L10.19 7.59L10.19 7.59Q10.36 7.17 10.69 6.86L10.69 6.86L10.69 6.86Q11.02 6.55 11.48 6.36L11.48 6.36L11.48 6.36Q11.94 6.17 12.49 6.10L12.49 6.10L12.49 6.10Q13.01 6.03 13.62 6.03L13.62 6.03L13.62 6.03Q14.24 6.03 14.73 6.06L14.73 6.06L14.73 5.84L14.73 5.84Q14.73 5.24 14.46 4.93L14.46 4.93L14.46 4.93Q14.20 4.63 13.80 4.54L13.80 4.54L13.80 4.54Q13.40 4.45 12.92 4.52L12.92 4.52L12.92 4.52Q12.45 4.59 12.01 4.72L12.01 4.72L12.01 4.72Q11.58 4.86 11.25 5.00L11.25 5.00L11.25 5.00Q10.92 5.15 10.84 5.22L10.84 5.22L10.84 3.81L10.84 3.81Q10.85 3.79 11.09 3.69L11.09 3.69L11.09 3.69Q11.33 3.58 11.69 3.46L11.69 3.46L11.69 3.46Q12.05 3.33 12.51 3.23L12.51 3.23L12.51 3.23Q12.96 3.12 13.43 3.12ZM14.32 8.68L14.32 8.68L14.32 8.68Q14.56 8.37 14.64 7.99L14.64 7.99L14.64 7.99Q14.71 7.62 14.71 7.20L14.71 7.20L13.90 7.20L13.90 7.20Q13.58 7.20 13.22 7.24L13.22 7.24L13.22 7.24Q12.85 7.28 12.54 7.41L12.54 7.41L12.54 7.41Q12.24 7.53 12.03 7.78L12.03 7.78L12.03 7.78Q11.82 8.02 11.82 8.44L11.82 8.44L11.82 8.44Q11.82 8.90 12.16 9.11L12.16 9.11L12.16 9.11Q12.50 9.32 13.01 9.32L13.01 9.32L13.01 9.32Q13.44 9.32 13.77 9.15L13.77 9.15L13.77 9.15Q14.10 8.97 14.32 8.68ZM23.35 3.29L24.82 3.29L24.82 9.63L24.82 9.63Q24.82 10.32 24.61 10.93L24.61 10.93L24.61 10.93Q24.39 11.54 23.92 12.01L23.92 12.01L23.92 12.01Q23.45 12.47 22.72 12.76L22.72 12.76L22.72 12.76Q21.99 13.05 20.97 13.06L20.97 13.06L20.97 13.06Q20.43 13.06 19.98 12.98L19.98 12.98L19.98 12.98Q19.53 12.91 19.21 12.81L19.21 12.81L19.21 12.81Q18.83 12.70 18.52 12.54L18.52 12.54L18.66 11.05L18.66 11.05Q18.97 11.20 19.33 11.33L19.33 11.33L19.33 11.33Q19.66 11.44 20.07 11.52L20.07 11.52L20.07 11.52Q20.48 11.59 20.97 11.59L20.97 11.59L20.97 11.59Q21.56 11.59 21.93 11.43L21.93 11.43L21.93 11.43Q22.30 11.27 22.52 11.03L22.52 11.03L22.52 11.03Q22.74 10.78 22.83 10.50L22.83 10.50L22.83 10.50Q22.93 10.22 22.95 9.97L22.95 9.97L22.95 9.97Q22.97 9.73 22.96 9.56L22.96 9.56L22.96 9.56Q22.95 9.39 22.95 9.39L22.95 9.39L22.95 9.39Q22.95 9.39 22.83 9.56L22.83 9.56L22.83 9.56Q22.72 9.73 22.47 9.94L22.47 9.94L22.47 9.94Q22.22 10.15 21.81 10.32L21.81 10.32L21.81 10.32Q21.41 10.50 20.82 10.50L20.82 10.50L20.82 10.50Q20.19 10.50 19.63 10.31L19.63 10.31L19.63 10.31Q19.07 10.12 18.65 9.68L18.65 9.68L18.65 9.68Q18.23 9.24 17.98 8.53L17.98 8.53L17.98 8.53Q17.74 7.81 17.74 6.78L17.74 6.78L17.74 6.78Q17.74 5.74 18.05 5.04L18.05 5.04L18.05 5.04Q18.35 4.34 18.82 3.91L18.82 3.91L18.82 3.91Q19.28 3.49 19.82 3.30L19.82 3.30L19.82 3.30Q20.36 3.12 20.82 3.12L20.82 3.12L20.82 3.12Q21.36 3.12 21.77 3.28L21.77 3.28L21.77 3.28Q22.18 3.44 22.44 3.64L22.44 3.64L22.44 3.64Q22.69 3.84 22.83 4.00L22.83 4.00L22.83 4.00Q22.96 4.16 22.96 4.16L22.96 4.16L23.35 3.29ZM22.95 6.82L22.95 6.82L22.95 6.82Q22.95 5.68 22.50 5.13L22.50 5.13L22.50 5.13Q22.05 4.58 21.32 4.58L21.32 4.58L21.32 4.58Q20.59 4.58 20.15 5.13L20.15 5.13L20.15 5.13Q19.70 5.68 19.70 6.82L19.70 6.82L19.70 6.82Q19.70 7.95 20.15 8.50L20.15 8.50L20.15 8.50Q20.59 9.04 21.32 9.04L21.32 9.04L21.32 9.04Q22.05 9.04 22.50 8.50L22.50 8.50L22.50 8.50Q22.95 7.95 22.95 6.82ZM30.24 10.65L30.24 10.65L30.24 10.65Q29.08 10.65 28.32 10.35L28.32 10.35L28.32 10.35Q27.57 10.04 27.11 9.52L27.11 9.52L27.11 9.52Q26.66 9.00 26.47 8.32L26.47 8.32L26.47 8.32Q26.29 7.64 26.29 6.89L26.29 6.89L26.29 6.89Q26.29 6.22 26.47 5.54L26.47 5.54L26.47 5.54Q26.66 4.87 27.06 4.33L27.06 4.33L27.06 4.33Q27.45 3.79 28.10 3.46L28.10 3.46L28.10 3.46Q28.74 3.12 29.67 3.12L29.67 3.12L29.67 3.12Q30.65 3.12 31.30 3.46L31.30 3.46L31.30 3.46Q31.95 3.79 32.34 4.33L32.34 4.33L32.34 4.33Q32.73 4.87 32.89 5.54L32.89 5.54L32.89 5.54Q33.05 6.22 33.05 6.89L33.05 6.89L33.05 7.52L28.10 7.52L28.10 7.52Q28.10 8.27 28.64 8.76L28.64 8.76L28.64 8.76Q29.18 9.25 30.11 9.25L30.11 9.25L30.11 9.25Q30.65 9.25 31.09 9.14L31.09 9.14L31.09 9.14Q31.54 9.03 31.86 8.89L31.86 8.89L31.86 8.89Q32.23 8.74 32.54 8.53L32.54 8.53L32.54 10.09L32.54 10.09Q32.54 10.11 32.35 10.19L32.35 10.19L32.35 10.19Q32.17 10.28 31.86 10.38L31.86 10.38L31.86 10.38Q31.56 10.49 31.14 10.57L31.14 10.57L31.14 10.57Q30.72 10.65 30.24 10.65ZM28.10 6.19L31.28 6.19L31.28 6.19Q31.28 5.95 31.21 5.66L31.21 5.66L31.21 5.66Q31.15 5.38 30.98 5.12L30.98 5.12L30.98 5.12Q30.80 4.87 30.49 4.70L30.49 4.70L30.49 4.70Q30.17 4.54 29.67 4.54L29.67 4.54L29.67 4.54Q29.23 4.54 28.93 4.70L28.93 4.70L28.93 4.70Q28.63 4.87 28.45 5.12L28.45 5.12L28.45 5.12Q28.27 5.38 28.18 5.66L28.18 5.66L28.18 5.66Q28.10 5.95 28.10 6.19L28.10 6.19ZM42.49 1.20L42.49 1.20L42.49 1.20Q42.98 1.20 43.43 1.28L43.43 1.28L43.43 1.28Q43.88 1.36 44.21 1.44L44.21 1.44L44.21 1.44Q44.60 1.54 44.93 1.67L44.93 1.67L44.93 3.18L44.93 3.18Q44.39 3.01 43.83 2.90L43.83 2.90L43.83 2.90Q43.27 2.79 42.75 2.79L42.75 2.79L42.75 2.79Q42.22 2.79 41.75 2.94L41.75 2.94L41.75 2.94Q41.27 3.09 40.92 3.46L40.92 3.46L40.92 3.46Q40.57 3.82 40.36 4.42L40.36 4.42L40.36 4.42Q40.15 5.01 40.15 5.92L40.15 5.92L40.15 5.92Q40.15 7.28 40.60 7.99L40.60 7.99L40.60 7.99Q41.05 8.69 41.74 8.94L41.74 8.94L41.74 8.94Q42.43 9.18 43.28 9.07L43.28 9.07L43.28 9.07Q44.13 8.96 44.93 8.69L44.93 8.69L44.93 10.15L44.93 10.15Q44.59 10.29 44.20 10.40L44.20 10.40L44.20 10.40Q43.86 10.50 43.42 10.58L43.42 10.58L43.42 10.58Q42.98 10.65 42.49 10.65L42.49 10.65L42.49 10.65Q42.04 10.65 41.54 10.57L41.54 10.57L41.54 10.57Q41.03 10.49 40.55 10.28L40.55 10.28L40.55 10.28Q40.07 10.08 39.63 9.73L39.63 9.73L39.63 9.73Q39.19 9.38 38.84 8.86L38.84 8.86L38.84 8.86Q38.50 8.33 38.30 7.60L38.30 7.60L38.30 7.60Q38.11 6.87 38.11 5.92L38.11 5.92L38.11 5.92Q38.11 4.97 38.30 4.25L38.30 4.25L38.30 4.25Q38.50 3.53 38.84 3.00L38.84 3.00L38.84 3.00Q39.19 2.48 39.63 2.13L39.63 2.13L39.63 2.13Q40.07 1.79 40.55 1.58L40.55 1.58L40.55 1.58Q41.03 1.37 41.54 1.29L41.54 1.29L41.54 1.29Q42.04 1.20 42.49 1.20ZM50.64 3.18L50.64 5.10L50.64 5.10Q50.32 5.03 50.06 5.02L50.06 5.02L50.06 5.02Q49.80 5.01 49.57 5.03L49.57 5.03L49.57 5.03Q49.13 5.05 48.84 5.22L48.84 5.22L48.84 5.22Q48.55 5.39 48.40 5.66L48.40 5.66L48.40 5.66Q48.24 5.94 48.19 6.28L48.19 6.28L48.19 6.28Q48.13 6.62 48.13 6.99L48.13 6.99L48.13 10.50L46.24 10.50L46.24 3.36L47.63 3.36L47.92 4.93L47.92 4.93Q47.92 4.93 47.96 4.77L47.96 4.77L47.96 4.77Q47.99 4.61 48.10 4.38L48.10 4.38L48.10 4.38Q48.20 4.14 48.40 3.88L48.40 3.88L48.40 3.88Q48.59 3.63 48.90 3.43L48.90 3.43L48.90 3.43Q49.20 3.23 49.62 3.15L49.62 3.15L49.62 3.15Q50.05 3.07 50.64 3.18L50.64 3.18ZM55.29 10.65L55.29 10.65L55.29 10.65Q54.12 10.65 53.37 10.35L53.37 10.35L53.37 10.35Q52.61 10.04 52.16 9.52L52.16 9.52L52.16 9.52Q51.70 9.00 51.52 8.32L51.52 8.32L51.52 8.32Q51.34 7.64 51.34 6.89L51.34 6.89L51.34 6.89Q51.34 6.22 51.52 5.54L51.52 5.54L51.52 5.54Q51.70 4.87 52.10 4.33L52.10 4.33L52.10 4.33Q52.50 3.79 53.14 3.46L53.14 3.46L53.14 3.46Q53.79 3.12 54.71 3.12L54.71 3.12L54.71 3.12Q55.69 3.12 56.34 3.46L56.34 3.46L56.34 3.46Q56.99 3.79 57.39 4.33L57.39 4.33L57.39 4.33Q57.78 4.87 57.94 5.54L57.94 5.54L57.94 5.54Q58.10 6.22 58.10 6.89L58.10 6.89L58.10 7.52L53.14 7.52L53.14 7.52Q53.14 8.27 53.68 8.76L53.68 8.76L53.68 8.76Q54.22 9.25 55.16 9.25L55.16 9.25L55.16 9.25Q55.69 9.25 56.14 9.14L56.14 9.14L56.14 9.14Q56.59 9.03 56.91 8.89L56.91 8.89L56.91 8.89Q57.27 8.74 57.58 8.53L57.58 8.53L57.58 10.09L57.58 10.09Q57.58 10.11 57.40 10.19L57.40 10.19L57.40 10.19Q57.22 10.28 56.91 10.38L56.91 10.38L56.91 10.38Q56.60 10.49 56.18 10.57L56.18 10.57L56.18 10.57Q55.76 10.65 55.29 10.65ZM53.14 6.19L56.32 6.19L56.32 6.19Q56.32 5.95 56.26 5.66L56.26 5.66L56.26 5.66Q56.20 5.38 56.02 5.12L56.02 5.12L56.02 5.12Q55.85 4.87 55.53 4.70L55.53 4.70L55.53 4.70Q55.22 4.54 54.71 4.54L54.71 4.54L54.71 4.54Q54.28 4.54 53.98 4.70L53.98 4.70L53.98 4.70Q53.68 4.87 53.49 5.12L53.49 5.12L53.49 5.12Q53.31 5.38 53.23 5.66L53.23 5.66L53.23 5.66Q53.14 5.95 53.14 6.19L53.14 6.19ZM62.33 3.12L62.33 3.12L62.33 3.12Q62.79 3.12 63.32 3.27L63.32 3.27L63.32 3.27Q63.85 3.42 64.32 3.75L64.32 3.75L64.32 3.75Q64.78 4.07 65.07 4.59L65.07 4.59L65.07 4.59Q65.37 5.11 65.35 5.85L65.35 5.85L65.35 10.50L63.98 10.50L63.98 10.50Q63.98 10.50 63.94 10.33L63.94 10.33L63.94 10.33Q63.90 10.16 63.85 9.95L63.85 9.95L63.85 9.95Q63.80 9.74 63.76 9.58L63.76 9.58L63.76 9.58Q63.71 9.42 63.71 9.44L63.71 9.44L63.71 9.44Q63.52 9.79 63.20 10.05L63.20 10.05L63.20 10.05Q62.92 10.29 62.48 10.47L62.48 10.47L62.48 10.47Q62.03 10.65 61.39 10.65L61.39 10.65L61.39 10.65Q60.94 10.65 60.51 10.52L60.51 10.52L60.51 10.52Q60.07 10.39 59.73 10.13L59.73 10.13L59.73 10.13Q59.39 9.87 59.17 9.48L59.17 9.48L59.17 9.48Q58.95 9.09 58.94 8.57L58.94 8.57L58.94 8.57Q58.91 8.02 59.09 7.59L59.09 7.59L59.09 7.59Q59.26 7.17 59.59 6.86L59.59 6.86L59.59 6.86Q59.92 6.55 60.38 6.36L60.38 6.36L60.38 6.36Q60.84 6.17 61.39 6.10L61.39 6.10L61.39 6.10Q61.91 6.03 62.52 6.03L62.52 6.03L62.52 6.03Q63.14 6.03 63.63 6.06L63.63 6.06L63.63 5.84L63.63 5.84Q63.63 5.24 63.36 4.93L63.36 4.93L63.36 4.93Q63.10 4.63 62.70 4.54L62.70 4.54L62.70 4.54Q62.30 4.45 61.82 4.52L61.82 4.52L61.82 4.52Q61.35 4.59 60.91 4.72L60.91 4.72L60.91 4.72Q60.48 4.86 60.15 5.00L60.15 5.00L60.15 5.00Q59.82 5.15 59.74 5.22L59.74 5.22L59.74 3.81L59.74 3.81Q59.75 3.79 59.99 3.69L59.99 3.69L59.99 3.69Q60.23 3.58 60.59 3.46L60.59 3.46L60.59 3.46Q60.96 3.33 61.41 3.23L61.41 3.23L61.41 3.23Q61.87 3.12 62.33 3.12ZM63.22 8.68L63.22 8.68L63.22 8.68Q63.46 8.37 63.54 7.99L63.54 7.99L63.54 7.99Q63.62 7.62 63.62 7.20L63.62 7.20L62.80 7.20L62.80 7.20Q62.48 7.20 62.12 7.24L62.12 7.24L62.12 7.24Q61.75 7.28 61.45 7.41L61.45 7.41L61.45 7.41Q61.14 7.53 60.93 7.78L60.93 7.78L60.93 7.78Q60.72 8.02 60.72 8.44L60.72 8.44L60.72 8.44Q60.72 8.90 61.06 9.11L61.06 9.11L61.06 9.11Q61.40 9.32 61.91 9.32L61.91 9.32L61.91 9.32Q62.34 9.32 62.67 9.15L62.67 9.15L62.67 9.15Q63.00 8.97 63.22 8.68ZM70.04 9.20L70.04 9.20L70.04 9.20Q70.45 9.20 70.80 9.13L70.80 9.13L70.80 9.13Q70.97 9.09 71.13 9.04L71.13 9.04L71.15 10.50L71.15 10.50Q70.90 10.54 70.62 10.58L70.62 10.58L70.62 10.58Q70.38 10.61 70.06 10.63L70.06 10.63L70.06 10.63Q69.73 10.65 69.37 10.65L69.37 10.65L69.37 10.65Q68.84 10.60 68.43 10.33L68.43 10.33L68.43 10.33Q68.08 10.09 67.80 9.63L67.80 9.63L67.80 9.63Q67.51 9.16 67.51 8.30L67.51 8.30L67.51 5.36L66.14 5.36L66.14 3.99L67.51 3.99L67.51 1.97L69.37 1.55L69.37 3.99L71.06 3.99L71.06 5.36L69.40 5.36L69.40 8.20L69.40 8.20Q69.40 8.39 69.45 8.56L69.45 8.56L69.45 8.56Q69.50 8.74 69.59 8.88L69.59 8.88L69.59 8.88Q69.68 9.02 69.80 9.11L69.80 9.11L69.80 9.11Q69.92 9.20 70.04 9.20ZM74.61 10.50L72.72 10.50L72.72 3.29L74.61 3.29L74.61 10.50ZM74.70 1.02L74.70 1.02L74.70 1.02Q74.70 1.47 74.40 1.78L74.40 1.78L74.40 1.78Q74.09 2.09 73.65 2.09L73.65 2.09L73.65 2.09Q73.21 2.09 72.90 1.78L72.90 1.78L72.90 1.78Q72.59 1.47 72.59 1.02L72.59 1.02L72.59 1.02Q72.59 0.59 72.90 0.29L72.90 0.29L72.90 0.29Q73.21-0.01 73.65-0.01L73.65-0.01L73.65-0.01Q74.09-0.01 74.40 0.29L74.40 0.29L74.40 0.29Q74.70 0.59 74.70 1.02ZM81.44 3.29L83.29 3.29L80.63 10.50L78.51 10.50L75.84 3.29L77.69 3.29L79.58 8.54L81.44 3.29ZM81.44 3.29L83.29 3.29L80.63 10.50L78.51 10.50L75.84 3.29L77.69 3.29L79.58 8.54L81.44 3.29ZM87.91 10.65L87.91 10.65L87.91 10.65Q86.74 10.65 85.99 10.35L85.99 10.35L85.99 10.35Q85.23 10.04 84.78 9.52L84.78 9.52L84.78 9.52Q84.32 9.00 84.14 8.32L84.14 8.32L84.14 8.32Q83.96 7.64 83.96 6.89L83.96 6.89L83.96 6.89Q83.96 6.22 84.14 5.54L84.14 5.54L84.14 5.54Q84.32 4.87 84.72 4.33L84.72 4.33L84.72 4.33Q85.12 3.79 85.76 3.46L85.76 3.46L85.76 3.46Q86.41 3.12 87.33 3.12L87.33 3.12L87.33 3.12Q88.31 3.12 88.96 3.46L88.96 3.46L88.96 3.46Q89.61 3.79 90.01 4.33L90.01 4.33L90.01 4.33Q90.40 4.87 90.56 5.54L90.56 5.54L90.56 5.54Q90.72 6.22 90.72 6.89L90.72 6.89L90.72 7.52L85.76 7.52L85.76 7.52Q85.76 8.27 86.30 8.76L86.30 8.76L86.30 8.76Q86.84 9.25 87.78 9.25L87.78 9.25L87.78 9.25Q88.31 9.25 88.76 9.14L88.76 9.14L88.76 9.14Q89.21 9.03 89.53 8.89L89.53 8.89L89.53 8.89Q89.89 8.74 90.20 8.53L90.20 8.53L90.20 10.09L90.20 10.09Q90.20 10.11 90.02 10.19L90.02 10.19L90.02 10.19Q89.84 10.28 89.53 10.38L89.53 10.38L89.53 10.38Q89.22 10.49 88.80 10.57L88.80 10.57L88.80 10.57Q88.38 10.65 87.91 10.65ZM85.76 6.19L88.94 6.19L88.94 6.19Q88.94 5.95 88.88 5.66L88.88 5.66L88.88 5.66Q88.82 5.38 88.64 5.12L88.64 5.12L88.64 5.12Q88.47 4.87 88.15 4.70L88.15 4.70L88.15 4.70Q87.84 4.54 87.33 4.54L87.33 4.54L87.33 4.54Q86.90 4.54 86.60 4.70L86.60 4.70L86.60 4.70Q86.30 4.87 86.11 5.12L86.11 5.12L86.11 5.12Q85.93 5.38 85.85 5.66L85.85 5.66L85.85 5.66Q85.76 5.95 85.76 6.19L85.76 6.19Z"></path></g><!----><!----></svg>